<svg width="10" height="10" viewBox="0 0 10 10" fill="none" xmlns="http://www.w3.org/2000/svg">
<path d="M9 3.72072C9 3.79079 8.97661 3.85586 8.92982 3.91592L5.18246 7.90991C5.13567 7.96997 5.07485 8 5 8C4.9345 8 4.87368 7.96997 4.81754 7.90991L1.08421 3.91592C1.02807 3.85586 1 3.79079 1 3.72072C1 3.64064 1.02807 3.57558 1.08421 3.52553L1.47719 3.09009C1.53333 3.03003 1.59415 3 1.65965 3C1.7345 3 1.8 3.03003 1.85614 3.09009L5 6.46847L8.15789 3.09009C8.20468 3.03003 8.2655 3 8.34035 3C8.40585 3 8.46667 3.03003 8.52281 3.09009L8.92982 3.52553C8.97661 3.57558 9 3.64064 9 3.72072Z" fill="black"/>
</svg>
