<svg width="15" height="18" viewBox="0 0 15 18" fill="none" xmlns="http://www.w3.org/2000/svg">
<path d="M7.5 18L6.97974 17.5518C6.26252 16.9483 0 11.513 0 7.53716C0 3.37451 3.35787 0 7.5 0C11.6421 0 15 3.37451 15 7.53716C15 11.513 8.73748 16.9483 8.02323 17.5548L7.5 18ZM7.5 1.62975C4.25506 1.63345 1.62543 4.2761 1.62175 7.53712C1.62175 10.0348 5.4747 14.0248 7.5 15.8511C9.52534 14.0241 13.3782 10.0318 13.3782 7.53712C13.3746 4.2761 10.745 1.63348 7.5 1.62975Z" fill="#002C49"/>
<path d="M7.5 11C6.11929 11 5 9.65685 5 8C5 6.34315 6.11929 5 7.5 5C8.88071 5 10 6.34315 10 8C10 9.65685 8.88074 11 7.5 11ZM7.5 6.49997C6.80964 6.49997 6.25 7.17154 6.25 7.99997C6.25 8.82839 6.80964 9.49997 7.5 9.49997C8.19036 9.49997 8.75 8.82839 8.75 7.99997C8.75 7.17154 8.19038 6.49997 7.5 6.49997Z" fill="#002C49"/>
</svg>
