<svg width="127" height="108" viewBox="0 0 127 108" fill="none" xmlns="http://www.w3.org/2000/svg">
<g id="Group 94">
<g id="Group">
<g id="Group_2">
<path id="Vector" d="M30.9892 102.271C25.671 95.5668 19.4018 84.1975 18.5893 67.3222H0.396484C2.02633 87.506 16.8769 103.955 36.2801 108C34.6078 106.446 32.7953 104.548 30.9892 102.271Z" fill="url(#paint0_linear_1123_957)"/>
</g>
</g>
<g id="Group_3">
<g id="Group_4">
<path id="Vector_2" d="M126.603 0H109.33V18.6486H90.681V0H73.4073V27.847C68.0581 23.6794 61.7511 20.684 54.8701 19.2498C56.5426 20.804 58.3551 22.7018 60.1615 24.979C65.4797 31.6835 71.7489 43.053 72.5613 59.9273H90.7544C90.5691 57.6307 90.2107 55.3831 89.6955 53.1959H126.603V0Z" fill="url(#paint1_linear_1123_957)"/>
</g>
</g>
<g id="Group_5">
<g id="Group_6">
<path id="Vector_3" d="M49.2734 67.3225V103.095C50.9077 101.631 52.7575 99.7433 54.5958 97.387C61.0073 89.1697 64.5546 79.0699 65.1632 67.3225H49.2734Z" fill="url(#paint2_linear_1123_957)"/>
</g>
</g>
<g id="Group_7">
<g id="Group_8">
<path id="Vector_4" d="M36.5567 29.8635C30.145 38.0807 26.5979 48.1805 25.9893 59.9274H41.8786V24.1548C40.245 25.6185 38.3953 27.5069 36.5567 29.8635Z" fill="url(#paint3_linear_1123_957)"/>
</g>
</g>
<g id="Group_9">
<g id="Group_10">
<path id="Vector_5" d="M54.5958 29.8635C52.7575 27.5072 50.9077 25.6187 49.2734 24.155V59.9277H65.163C64.5544 48.1805 61.0073 38.081 54.5958 29.8635Z" fill="url(#paint4_linear_1123_957)"/>
</g>
</g>
<g id="Group_11">
<g id="Group_12">
<path id="Vector_6" d="M25.9951 67.3222C27.0188 86.6078 35.913 97.7426 41.8785 103.1V67.3222H25.9951Z" fill="url(#paint5_linear_1123_957)"/>
</g>
</g>
<g id="Group_13">
<g id="Group_14">
<path id="Vector_7" d="M0.396484 59.9275H18.5896C19.4018 43.0532 25.6712 31.6836 30.9892 24.9791C32.7956 22.702 34.6078 20.8042 36.2806 19.25C16.8772 23.2943 2.02609 39.7437 0.396484 59.9275Z" fill="url(#paint6_linear_1123_957)"/>
</g>
</g>
<g id="Group_15">
<g id="Group_16">
<path id="Vector_8" d="M72.563 67.3225C71.7506 84.1976 65.4811 95.5668 60.1629 102.271C58.3568 104.548 56.5443 106.446 54.8721 108C74.2755 103.956 89.1263 87.5063 90.7559 67.3225H72.563Z" fill="url(#paint7_linear_1123_957)"/>
</g>
</g>
</g>
<defs>
<linearGradient id="paint0_linear_1123_957" x1="0.0340221" y1="69.1751" x2="35.2553" y2="96.113" gradientUnits="userSpaceOnUse">
<stop stop-color="#E76120"/>
<stop offset="1" stop-color="#A1499C"/>
</linearGradient>
<linearGradient id="paint1_linear_1123_957" x1="54.1455" y1="2.72969" x2="107.874" y2="58.4887" gradientUnits="userSpaceOnUse">
<stop stop-color="#E76120"/>
<stop offset="1" stop-color="#A1499C"/>
</linearGradient>
<linearGradient id="paint2_linear_1123_957" x1="49.1129" y1="68.952" x2="70.64" y2="77.2422" gradientUnits="userSpaceOnUse">
<stop stop-color="#E76120"/>
<stop offset="1" stop-color="#A1499C"/>
</linearGradient>
<linearGradient id="paint3_linear_1123_957" x1="25.8288" y1="25.7842" x2="47.3553" y2="34.0741" gradientUnits="userSpaceOnUse">
<stop stop-color="#E76120"/>
<stop offset="1" stop-color="#A1499C"/>
</linearGradient>
<linearGradient id="paint4_linear_1123_957" x1="49.1129" y1="25.7845" x2="70.6397" y2="34.0745" gradientUnits="userSpaceOnUse">
<stop stop-color="#E76120"/>
<stop offset="1" stop-color="#A1499C"/>
</linearGradient>
<linearGradient id="paint5_linear_1123_957" x1="25.8347" y1="68.9519" x2="47.3561" y2="77.2354" gradientUnits="userSpaceOnUse">
<stop stop-color="#E76120"/>
<stop offset="1" stop-color="#A1499C"/>
</linearGradient>
<linearGradient id="paint6_linear_1123_957" x1="0.0340171" y1="21.1029" x2="35.2554" y2="48.0412" gradientUnits="userSpaceOnUse">
<stop stop-color="#E76120"/>
<stop offset="1" stop-color="#A1499C"/>
</linearGradient>
<linearGradient id="paint7_linear_1123_957" x1="54.5096" y1="69.1754" x2="89.7309" y2="96.1135" gradientUnits="userSpaceOnUse">
<stop stop-color="#E76120"/>
<stop offset="1" stop-color="#A1499C"/>
</linearGradient>
</defs>
</svg>
