<svg width="24" height="24" viewBox="0 0 24 24" fill="none" xmlns="http://www.w3.org/2000/svg">
<path fill-rule="evenodd" clip-rule="evenodd" d="M5.63606 18.3638C5.24554 17.9733 5.24554 17.3402 5.63606 16.9496L16.9498 5.63592C17.3403 5.2454 17.9735 5.2454 18.364 5.63592C18.7545 6.02645 18.7545 6.65961 18.364 7.05014L7.05028 18.3638C6.65975 18.7544 6.02659 18.7544 5.63606 18.3638Z" fill="black"/>
<path fill-rule="evenodd" clip-rule="evenodd" d="M5.63615 5.63606C6.02668 5.24554 6.65984 5.24554 7.05037 5.63606L18.3641 16.9498C18.7546 17.3403 18.7546 17.9735 18.3641 18.364C17.9736 18.7545 17.3404 18.7545 16.9499 18.364L5.63615 7.05028C5.24563 6.65975 5.24563 6.02659 5.63615 5.63606Z" fill="black"/>
</svg>
